<svg xmlns="http://www.w3.org/2000/svg" viewBox="0 0 1907 784.49"><defs><style>.cls-1{fill:#fff;}</style></defs><title>foolad w</title><g id="Layer_2" data-name="Layer 2"><g id="Layer_1-2" data-name="Layer 1"><g id="Layer_2-2" data-name="Layer 2"><g id="Layer_1-2-2" data-name="Layer 1-2"><g id="Layer_2-2-2" data-name="Layer 2-2"><g id="Layer_1-2-2-2" data-name="Layer 1-2-2"><path class="cls-1" d="M54.24,784.49V739.43H0V0H1862.84V53.33H1907v731Zm1804-779.71H5.52V733.92H1858.23Z"/><path class="cls-1" d="M1348.86,402V290.74c-.41-117.77,94.73-213.55,212.49-214A213.22,213.22,0,0,1,1746.07,182.2a210.93,210.93,0,0,1-28.51,252.86,205.8,205.8,0,0,1-171,67.11,217.75,217.75,0,0,1-63.43-13.79c-.92,0-1.84-.92-3.68-.92V664H1347.93V478.12c-21,116.43-132.49,193.77-248.92,172.73A214.24,214.24,0,0,1,924,462.49V663.86H792.58V488.24c-12,3.67-23.91,7.36-35,10.11C642.72,523.6,529.09,450.92,503.84,336S551.27,107.45,666.23,82.2C780.39,57,893.32,129.2,918.48,243.33c.36,1.64.7,3.28,1,4.93a326.42,326.42,0,0,1,4.6,43.21c.92,39.54,0,80,0,120.45v7.36A215.24,215.24,0,0,1,1133.74,228,211.48,211.48,0,0,1,1348.86,402ZM1138.29,517.89a78.69,78.69,0,0,0,78.16-78.23,77.14,77.14,0,0,0-77-77.24h-3a79.62,79.62,0,0,0-76.33,78.23,77.32,77.32,0,0,0,77.4,77.24h.77ZM1484,289a77.7,77.7,0,1,0,77.24-78.16A77.7,77.7,0,0,0,1484,289Zm-694.2.92a77.92,77.92,0,1,0,0,.73Z"/><path class="cls-1" d="M1137.37,219.94a72.45,72.45,0,0,1-71.71-71.72,71.45,71.45,0,0,1,70.8-70.8,70.6,70.6,0,0,1,71.71,69.47v2.25a69.69,69.69,0,0,1-68.56,70.8Z"/><path class="cls-1" d="M163.66,218.1a71.5,71.5,0,0,1-44.13,21.15,46,46,0,0,1-31.26-6.44,43.58,43.58,0,0,1-14.72-39.54,72.68,72.68,0,0,1,26.67-50.57l3.67-3.67a3.25,3.25,0,0,0,.93-1.84,128.48,128.48,0,0,0-14.71-4.6,19.11,19.11,0,0,1,15.64-20.23,45.92,45.92,0,0,1,19.31,1.84,9.85,9.85,0,0,1,4.58,16.51L121.36,139a32.69,32.69,0,0,0,44.15-3.69A51.5,51.5,0,0,1,171,128a10.4,10.4,0,0,1,14.56-2,10,10,0,0,1,2,2,99,99,0,0,1,8.28,10.12,26.84,26.84,0,0,0,37.94,1.49,27.3,27.3,0,0,0,4.35-5.18A2,2,0,0,1,240,132.6h.92c2.76,12,3.7,13.83,16.57,13.83A96,96,0,0,0,309,132.59c-8.27-2.76-15.63-5.51-23-7.36-2.77-.92-6.44.92-9.2,1.84a16.56,16.56,0,0,0-4.6,3.68C275,113.28,286,105.92,298,112.36a93.33,93.33,0,0,0,44.13,12c-1.84,9.19-4.59,17.47-16.54,14.72a7.93,7.93,0,0,0,8.27,7.35,176.65,176.65,0,0,0,22.07,0,15.29,15.29,0,0,0,11.95-9.19c3.67-5.52,6.44-11,10.11-15.64,5.52-8.27,12.87-8.27,19.31,0s11,18.4,5.51,29.43c-3.67,7.36-7.34,9.19-15.62,5.52a32.82,32.82,0,0,1-7.36-4.6c-2.76-1.84-4.59-3.68-6.43-4.6s-.93,0-.93.92a20.68,20.68,0,0,1-23.9,12.87h-9.2c-11,0-15.62-5.52-17.47-15.63,0-1.84-.92-3.68-.92-6.43a105.43,105.43,0,0,0-17.47,9.19,69.18,69.18,0,0,1-30.34,12.87,81.38,81.38,0,0,1-21.15,0,12.59,12.59,0,0,1-12.87-8.28c-13.78,12-28.5,10.12-43.21,3.69-1.84,12.87-6.44,14.71-17.47,7.35a68.84,68.84,0,0,1-12.87-10.12c-14.72,12-32.19,9.2-50.57-8.27A71.06,71.06,0,0,0,83.7,186.89a33,33,0,0,0,25.74,38.93h0a33.73,33.73,0,0,0,4.59.61A111.79,111.79,0,0,0,160,220c1.84-.92,2.76-.92,4.61-1.84C162.74,217.18,162.74,218.1,163.66,218.1Zm24.83-64.37a28.54,28.54,0,0,0-8.27-17.47c-.92-.92-4.59,0-5.51.93s-3.68,4.59-2.77,5.51a26.82,26.82,0,0,0,16.55,11Zm187.57-17.47a68.8,68.8,0,0,0,11,6.44c1.84.92,5.52,1.84,5.52-2.76s-4.6-12.87-7.35-12.87c-5.49-.92-6.41,4.6-9.17,9.19Z"/><path class="cls-1" d="M246.42,428.66c24.82,1.83,45.05-2.76,53.32-29.43a45.6,45.6,0,0,1-11-1.83,10.67,10.67,0,0,1-10.18-11.13h0a7.56,7.56,0,0,1,.07-.82,37.36,37.36,0,0,1,7.36-22c5.51-6.43,11-5.51,14.7.92a27.82,27.82,0,0,1,3.69,9.19,33.24,33.24,0,0,1,1.83,10.12h23c16.55,0,33.09,0,48.73-.92a48.07,48.07,0,0,0,11-2.76,11.12,11.12,0,0,0,6.43-12,80.65,80.65,0,0,1-13.8,4.59,10.88,10.88,0,0,1-12.69-8.71h0v-.09a11.26,11.26,0,0,1-.16-1.3,39.52,39.52,0,0,1,9.2-28.5c3.67-4.6,8.28-4.6,12.87,0a52.76,52.76,0,0,1,8.29,50.53,22.35,22.35,0,0,1-19.31,12.88c-8.27.91-17.47.91-25.74,1.83H309.85c-3.67,0-5.51.92-6.43,4.6a63.78,63.78,0,0,1-13.79,28.5,24.94,24.94,0,0,1-24.82,8.32A87.79,87.79,0,0,1,246.42,428.66Zm137-69c2.76-1.84,6.43-3.68,6.43-5.53A11.13,11.13,0,0,0,382.49,344c-2.76,0-6.43,5.52-6.43,9.2s2.76,5.37,7.36,6.48Zm-82.76,24.82a21,21,0,0,0-5.51-8.27,10.4,10.4,0,0,0-7.36-.92A6.51,6.51,0,0,0,285,380.8c.92,1.84,3.68,2.76,5.52,3.68Z"/><path class="cls-1" d="M196.77,521.52c-2.76,10.11-4.61,17.47-14.72,21.15-14.7,6.44-27.57,13.84-42.29,21.14-1.84.93-2.76,1.85-4.6,2.77,8.27,6.43,17.46,12.87,25.74,20.23A27.55,27.55,0,0,1,171,617.15c-2.76,12-11,18.39-25.74,20.23a207.67,207.67,0,0,1-23.92.91A17.37,17.37,0,0,1,102,624.51c0-.93-.91-1.85-.91-2.77a22.06,22.06,0,0,1-26.67-.87c-2.76-2.75,0-12.87,4.6-17.47a94.54,94.54,0,0,1,10.12-7.35,13.06,13.06,0,0,0,8.27-12c0-3.67,3.68-6.43,7.36-9.19,0,8.27.92,15.63.92,23.91a103,103,0,0,0,2.76,16.55c1.83,6.43,4.59,9.2,11,8.27a202.81,202.81,0,0,0,34-2.76,17,17,0,0,0,11.05-7.36c.92-2.75-3.69-8.26-6.44-11a178.73,178.73,0,0,0-26.67-19.31c-10.12-7.35-11-16.54-.92-23,15.64-10.12,31.26-19.31,46.9-28.51C184.82,527,190.33,525.2,196.77,521.52ZM83.67,610.71v1.83a39.61,39.61,0,0,0,14.71-.91c1.84-.92.92-7.35,1.84-12.87C93.78,603.35,88.27,606.85,83.67,610.71Z"/><path class="cls-1" d="M284.12,525.2c1.84,21.15,2.75,43.21,4.59,64.36.92,8.28,1.84,16.56,2.76,23.9a12.68,12.68,0,0,0,12,10.12h6.43A21.4,21.4,0,0,0,332,608.87a6.77,6.77,0,0,1,.92,3.68c.93,8.27,3.69,10.11,12,11a22.23,22.23,0,0,0,24.82-12.87A62,62,0,0,1,378,597.81a10.3,10.3,0,0,1,17.47,0,27.56,27.56,0,0,1,6.43,30.34,10,10,0,0,1-15.61,5.56c-4.61-2.76-9.2-5.51-14.72-9.18-4.59,7.34-9.2,14.7-19.31,13.78-8.27-.91-17.46,0-22.07-9.19a30.88,30.88,0,0,1-34.93,6.44A20.35,20.35,0,0,1,285,622.71c-1.84-11-2.76-22.07-4.6-32.18-1.84-15.63-3.67-32.18-4.59-47.82a67.12,67.12,0,0,1,6.43-17.46Zm109.41,94.68c0-6.44-5.52-14.7-9.19-13.78s-4.6,4.59-7.36,7.34c4.59,2.77,8.28,5.53,12.87,8.28C390.77,622.66,392.61,619.88,393.53,619.88Z"/><path class="cls-1" d="M175.62,402c1.84-6.43,2.76-11,10.12-13.79a50.45,50.45,0,0,0,16.54-14.72,4.12,4.12,0,0,0,0-4.59,205.19,205.19,0,0,0-34.93-48.77c-.92-.92-1.83-1.84-2.75-1.84-6.44,0-21.16-9.19-20.23-14.71A178.56,178.56,0,0,1,149,285.19a126.33,126.33,0,0,1,34.94,34.94c9.19,12.87,16.55,26.67,25.75,41.37a190.82,190.82,0,0,0,6.44-29.42,126.69,126.69,0,0,0-1.84-32.18,14.25,14.25,0,0,1,7.35-16.55A62,62,0,0,0,228,293.46a8,8,0,0,1-.91,11.28h0a8.86,8.86,0,0,1-.93.68,9.82,9.82,0,0,0-1.83,5.51,140.48,140.48,0,0,1-10.12,55.18c-.93,1.83,0,4.59,0,6.43A94.11,94.11,0,0,1,217,388.17a12,12,0,0,1-9.9,13.67L206,402Zm21.15-12.87c5.51,0,9.19-.92,13.79-.92a77.61,77.61,0,0,1-3.68-11,138.78,138.78,0,0,0-10.11,12Z"/><path class="cls-1" d="M88.27,355.09c.92-3.67,1.84-8.26,3.67-14.7a56.88,56.88,0,0,1,11,8.27,43.82,43.82,0,0,1,14.72,31.26,18.39,18.39,0,0,1-16.55,19.31,81.38,81.38,0,0,1-21.15,0c-6.44-.91-6.44-1.83-5.52-8.27.93-1.84.93-4.6,2.76-4.6a139.32,139.32,0,0,0,27.59-1.84c8.27-.92,9.19-4.6,3.67-11A202.48,202.48,0,0,0,88.27,355.09Z"/><path class="cls-1" d="M193.09,662a180.88,180.88,0,0,0,24.83-3.68,36.78,36.78,0,0,0,27.59-23,8.27,8.27,0,0,0-.92-10.11c-.93-.92-1.85-2.76-2.77-3.69-7.35-10.11-8.27-11-.92-23a32.77,32.77,0,0,1,10.1,21.2A50.8,50.8,0,0,1,237.23,662,23.36,23.36,0,0,1,217,669.39,38.61,38.61,0,0,1,193.09,662Z"/><path class="cls-1" d="M228,91.21a92.72,92.72,0,0,1,10.11,9.2,84,84,0,0,0,8.28-9.2c3.67,3.68,9.19,7.36,9.19,10.12s-4.6,6.43-8.27,10.11c-3.69-3.68-6.44-5.52-10.12-9.2-2.75,3.68-4.6,6.44-6.44,9.2-3.67-3.68-7.36-6.44-11-10.11A67.91,67.91,0,0,1,228,91.21Z"/><path class="cls-1" d="M380.66,559.22c-5.52-2.76-8.28-5.52-7.35-11s7.35-12,11-12c1.84,0,5.51,2.75,5.51,3.67,0,4.6-.92,9.2-.92,13.79.92,2.76.92,5.52,1.84,9.19-3.67-1.83-5.51-1.83-7.35-2.75a35.38,35.38,0,0,1-27.59,10.11A119.53,119.53,0,0,0,380.66,559.22Zm8.27-12.87-4.59-4.6a21.49,21.49,0,0,0-6.44,6.44l4.59,4.59A21,21,0,0,0,388.93,546.35Z"/><path class="cls-1" d="M379.74,86.62c-7.36-8.28-6.43-17.47,2.75-22.08,4.61-2.75,8.28-.91,9.2,4.61a69.61,69.61,0,0,1-1.84,13.78,10.9,10.9,0,0,0,2.76,1.84,13,13,0,0,0-1.84,5.52,13.25,13.25,0,0,0-6.43-1.83,35.44,35.44,0,0,1-27.58,10.11A182.72,182.72,0,0,0,379.74,86.62Zm9.19-12L384.34,70a34.56,34.56,0,0,0-5.52,6.43c0,.93,2.75,2.77,4.6,4.61.92-1.84,3.68-3.64,5.51-6.4Z"/><path class="cls-1" d="M299.74,185.91c2.76-3.67,6.44-6.43,10.12-11,3.68,3.68,9.19,7.36,9.19,11s-5.51,7.36-8.27,11A63.15,63.15,0,0,0,299.74,185.91Z"/><path class="cls-1" d="M371.46,303.42a100.11,100.11,0,0,0,9.2-10.11c14.71,9.19,12.88,12,.92,20.23A105.08,105.08,0,0,0,371.46,303.42Z"/><path class="cls-1" d="M329.17,675.08l-11-11a130,130,0,0,0,10.12-11c3.67,3.69,9.19,7.36,9.19,11S331.92,672.36,329.17,675.08Z"/></g></g></g></g></g></g></svg>