<svg xmlns="http://www.w3.org/2000/svg" viewBox="0 0 1925.8 792.23"><defs><style>.cls-1{fill:#222;}</style></defs><title>foolad</title><g id="Layer_2" data-name="Layer 2"><g id="Layer_1-2" data-name="Layer 1"><path class="cls-1" d="M54.78,792.23v-45.5H0V0H1881.23V53.86h44.57V792.05ZM1876.58,4.83H5.57V741.16h1871Z"/><path class="cls-1" d="M1362.17,406V293.61c-.41-118.93,95.67-215.66,214.59-216.07A215.32,215.32,0,0,1,1763.3,184a213,213,0,0,1-28.79,255.35,207.8,207.8,0,0,1-172.71,67.78,220,220,0,0,1-64.06-13.93c-.93,0-1.86-.93-3.72-.93V670.59H1361.24V482.84c-21.25,117.58-133.8,195.68-251.38,174.43A216.34,216.34,0,0,1,933.18,467.06V670.41H800.4V493.06c-12.07,3.71-24.14,7.43-35.29,10.21-116.05,25.5-230.8-47.9-256.3-163.95s47.9-230.81,164-256.31a213.74,213.74,0,0,1,255.77,167.7,330.87,330.87,0,0,1,4.64,43.64c.93,39.93,0,80.78,0,121.64v7.43a217.37,217.37,0,0,1,211.71-193.14A213.56,213.56,0,0,1,1362.17,406ZM1149.53,523A79.47,79.47,0,0,0,1228.46,444a77.9,77.9,0,0,0-77.76-78c-1,0-2,0-3,0A80.41,80.41,0,0,0,1070.61,445a78.09,78.09,0,0,0,78.18,78Zm349.14-231.2a78.46,78.46,0,1,0,78-78.93,78.45,78.45,0,0,0-78,78.93Zm-701.05.93a78.68,78.68,0,1,0,0,.74c0-.25,0-.49,0-.74Z"/><path class="cls-1" d="M1148.6,222.11a73.17,73.17,0,0,1-72.42-72.43,72.15,72.15,0,0,1,71.5-71.5,71.31,71.31,0,0,1,72.42,70.18q0,1.13,0,2.25a70.38,70.38,0,0,1-69.25,71.5Z"/><path class="cls-1" d="M165.28,220.25a72.25,72.25,0,0,1-44.57,21.36,46.49,46.49,0,0,1-31.57-6.5,44,44,0,0,1-14.86-39.93,73.37,73.37,0,0,1,26.93-51.07l3.71-3.71a3.28,3.28,0,0,0,.93-1.86A131.08,131.08,0,0,0,91,133.9a19.31,19.31,0,0,1,15.79-20.43,46.32,46.32,0,0,1,19.5,1.86A9.94,9.94,0,0,1,130.92,132l-8.36,8.36a33,33,0,0,0,44.58-3.72,51.62,51.62,0,0,1,5.57-7.43,10.5,10.5,0,0,1,14.7-2,10.34,10.34,0,0,1,2,2,99.86,99.86,0,0,1,8.36,10.22,27.11,27.11,0,0,0,42.71-3.72,2,2,0,0,1,1.86-1.85h.93C246.06,146,247,147.82,260,147.82a96.83,96.83,0,0,0,52-13.92c-8.35-2.79-15.78-5.57-23.21-7.43-2.79-.93-6.5.93-9.29,1.85a16.55,16.55,0,0,0-4.64,3.72c2.79-17.64,13.93-25.07,26-18.57a94.27,94.27,0,0,0,44.57,12.07c-1.86,9.28-4.64,17.64-16.71,14.86a8,8,0,0,0,8.35,7.42,176.36,176.36,0,0,0,22.29,0,15.41,15.41,0,0,0,12.07-9.28c3.71-5.57,6.5-11.14,10.21-15.79,5.57-8.35,13-8.35,19.5,0s11.14,18.58,5.57,29.72c-3.71,7.43-7.42,9.28-15.78,5.57a32.84,32.84,0,0,1-7.43-4.64c-2.79-1.86-4.64-3.72-6.5-4.65s-.93,0-.93.93a20.89,20.89,0,0,1-24.14,13h-9.29c-11.14,0-15.78-5.57-17.64-15.78,0-1.86-.93-3.72-.93-6.5a106,106,0,0,0-17.64,9.28,69.85,69.85,0,0,1-30.64,13,82.11,82.11,0,0,1-21.36,0,12.72,12.72,0,0,1-13-8.36c-13.92,12.08-28.78,10.22-43.64,3.72-1.85,13-6.5,14.86-17.64,7.43a70.14,70.14,0,0,1-13-10.22c-14.86,12.08-32.5,9.29-51.07-8.35A71.76,71.76,0,0,0,84.5,188.68a33.34,33.34,0,0,0,26,39.32,32.92,32.92,0,0,0,4.64.61,112.81,112.81,0,0,0,46.42-6.5c1.86-.93,2.79-.93,4.65-1.86C164.35,219.32,164.35,220.25,165.28,220.25Zm25.07-65A28.8,28.8,0,0,0,182,137.61c-.93-.93-4.64,0-5.57.93s-3.71,4.64-2.79,5.57A27.06,27.06,0,0,0,190.35,155.25Zm189.42-17.64a69.67,69.67,0,0,0,11.14,6.5c1.86.93,5.58,1.86,5.58-2.79s-4.65-13-7.43-13c-5.57-.92-6.5,4.65-9.29,9.29Z"/><path class="cls-1" d="M248.85,432.89c25.07,1.85,45.5-2.79,53.85-29.72a46.34,46.34,0,0,1-11.14-1.85,10.77,10.77,0,0,1-10.28-11.24,7.53,7.53,0,0,1,.07-.83A37.7,37.7,0,0,1,288.78,367c5.57-6.5,11.14-5.57,14.85.93a27.83,27.83,0,0,1,3.72,9.28,33.29,33.29,0,0,1,1.85,10.22h23.22c16.71,0,33.42,0,49.21-.93a48.63,48.63,0,0,0,11.14-2.79,11.22,11.22,0,0,0,6.5-12.07,81.32,81.32,0,0,1-13.93,4.64,11,11,0,0,1-12.84-8.9,11.43,11.43,0,0,1-.16-1.31,39.91,39.91,0,0,1,9.29-28.78c3.71-4.65,8.36-4.65,13,0A53.31,53.31,0,0,1,403,388.32a22.58,22.58,0,0,1-19.5,13c-8.35.92-17.64.92-26,1.85H312.91c-3.71,0-5.57.93-6.5,4.65a64.28,64.28,0,0,1-13.92,28.78A25.18,25.18,0,0,1,267.42,445,89.13,89.13,0,0,1,248.85,432.89ZM387.2,363.25c2.79-1.86,6.5-3.72,6.5-5.58a11.24,11.24,0,0,0-7.43-10.21c-2.79,0-6.5,5.57-6.5,9.29S382.56,362.13,387.2,363.25Zm-83.57,25.07a21.43,21.43,0,0,0-5.57-8.36,10.53,10.53,0,0,0-7.43-.93,6.6,6.6,0,0,0-2.79,5.57c.93,1.86,3.72,2.79,5.58,3.72Z"/><path class="cls-1" d="M198.71,526.67c-2.79,10.21-4.65,17.64-14.86,21.36C169,554.53,156,562,141.14,569.38c-1.86.93-2.79,1.86-4.65,2.79,8.36,6.5,17.64,13,26,20.43a27.84,27.84,0,0,1,10.22,30.64c-2.79,12.07-11.14,18.57-26,20.43a209.33,209.33,0,0,1-24.15.92,17.54,17.54,0,0,1-19.5-13.92c0-.93-.92-1.86-.92-2.79A22.28,22.28,0,0,1,75.21,627c-2.79-2.78,0-13,4.64-17.64a95.47,95.47,0,0,1,10.22-7.43,13.19,13.19,0,0,0,8.35-12.07c0-3.71,3.72-6.5,7.43-9.29,0,8.36.93,15.79.93,24.15a105.21,105.21,0,0,0,2.79,16.71c1.85,6.5,4.64,9.29,11.14,8.36A205.85,205.85,0,0,0,155.06,627a17.12,17.12,0,0,0,11.15-7.43c.93-2.78-3.72-8.35-6.5-11.14a180.28,180.28,0,0,0-26.93-19.5c-10.22-7.43-11.14-16.71-.93-23.21,15.79-10.22,31.57-19.5,47.36-28.79C186.64,532.24,192.21,530.38,198.71,526.67ZM84.5,616.74v1.85a40.16,40.16,0,0,0,14.85-.92c1.86-.93.93-7.43,1.86-13-6.5,4.64-12.07,8.17-16.71,12.07Z"/><path class="cls-1" d="M286.92,530.38c1.86,21.36,2.78,43.64,4.64,65,.93,8.36,1.86,16.72,2.79,24.14a12.81,12.81,0,0,0,12.07,10.22h6.5a21.63,21.63,0,0,0,22.28-14.86,7,7,0,0,1,.93,3.72c.93,8.35,3.72,10.21,12.07,11.14a22.47,22.47,0,0,0,25.07-13,62.52,62.52,0,0,1,8.36-13,10.4,10.4,0,0,1,17.64,0,27.84,27.84,0,0,1,6.5,30.64A10.1,10.1,0,0,1,390,640c-4.65-2.79-9.29-5.57-14.86-9.28-4.64,7.42-9.29,14.85-19.5,13.92-8.36-.92-17.64,0-22.29-9.28a31.19,31.19,0,0,1-35.28,6.5,20.53,20.53,0,0,1-10.22-13c-1.85-11.14-2.78-22.29-4.64-32.5-1.86-15.79-3.71-32.5-4.64-48.29a67.79,67.79,0,0,1,6.5-17.64ZM397.41,626c0-6.5-5.57-14.85-9.28-13.92s-4.64,4.64-7.43,7.42c4.64,2.79,8.36,5.58,13,8.36C394.63,628.81,396.49,626,397.41,626Z"/><path class="cls-1" d="M177.35,406c1.86-6.5,2.79-11.14,10.22-13.93a50.9,50.9,0,0,0,16.71-14.86,4.17,4.17,0,0,0,0-4.64A206.85,206.85,0,0,0,169,323.32c-.93-.93-1.85-1.86-2.78-1.86-6.5,0-21.36-9.28-20.43-14.85A182.75,182.75,0,0,1,150.42,288a127.76,127.76,0,0,1,35.29,35.29c9.28,13,16.71,26.93,26,41.78a192,192,0,0,0,6.5-29.71,127.83,127.83,0,0,0-1.86-32.5,14.39,14.39,0,0,1,7.43-16.71,62.57,62.57,0,0,0,6.5,10.21,8.09,8.09,0,0,1-.92,11.39,7.73,7.73,0,0,1-.94.68,10,10,0,0,0-1.85,5.57,141.56,141.56,0,0,1-10.22,55.72c-.93,1.85,0,4.64,0,6.5A93.81,93.81,0,0,1,219.14,392a12.08,12.08,0,0,1-10,13.81q-.56.07-1.11.12Zm21.36-13c5.57,0,9.28-.93,13.93-.93a78.28,78.28,0,0,1-3.72-11.14A139.75,139.75,0,0,0,198.71,393Z"/><path class="cls-1" d="M89.14,358.6c.93-3.71,1.86-8.35,3.71-14.85A57.49,57.49,0,0,1,104,352.1a44.26,44.26,0,0,1,14.86,31.57,18.56,18.56,0,0,1-16.71,19.5,82.11,82.11,0,0,1-21.36,0c-6.5-.92-6.5-1.85-5.57-8.35.93-1.86.93-4.65,2.78-4.65a140.47,140.47,0,0,0,27.86-1.85c8.36-.93,9.29-4.65,3.71-11.14A203,203,0,0,0,89.14,358.6Z"/><path class="cls-1" d="M195,668.55a181.3,181.3,0,0,0,25.07-3.71,37.13,37.13,0,0,0,27.86-23.22,8.35,8.35,0,0,0-.93-10.21c-.93-.93-1.86-2.79-2.79-3.72-7.43-10.21-8.35-11.14-.93-23.21a33.14,33.14,0,0,1,10.22,21.36,51.33,51.33,0,0,1-13.93,42.71A23.59,23.59,0,0,1,219.13,676,39,39,0,0,1,195,668.55Z"/><path class="cls-1" d="M230.28,92.11a92.61,92.61,0,0,1,10.21,9.29,84.61,84.61,0,0,0,8.36-9.29c3.71,3.72,9.28,7.43,9.28,10.22s-4.64,6.49-8.35,10.21c-3.72-3.72-6.5-5.57-10.22-9.29-2.78,3.72-4.64,6.5-6.5,9.29-3.71-3.72-7.43-6.5-11.14-10.21A68.31,68.31,0,0,1,230.28,92.11Z"/><path class="cls-1" d="M384.42,564.74c-5.58-2.79-8.36-5.57-7.43-11.14s7.43-12.07,11.14-12.07c1.86,0,5.57,2.78,5.57,3.71,0,4.64-.93,9.29-.93,13.93.93,2.78.93,5.57,1.86,9.28-3.71-1.85-5.57-1.85-7.43-2.78a35.75,35.75,0,0,1-27.86,10.21A121,121,0,0,0,384.42,564.74Zm8.35-13-4.64-4.64a21.66,21.66,0,0,0-6.5,6.5l4.64,4.64a21.44,21.44,0,0,0,6.5-6.5Z"/><path class="cls-1" d="M383.49,87.47c-7.43-8.36-6.5-17.64,2.78-22.29,4.65-2.78,8.36-.92,9.29,4.65a71,71,0,0,1-1.86,13.92,11.32,11.32,0,0,0,2.79,1.86,13.15,13.15,0,0,0-1.86,5.57,13.4,13.4,0,0,0-6.5-1.85,35.78,35.78,0,0,1-27.85,10.21A183.06,183.06,0,0,0,383.49,87.47Zm9.28-12.07-4.64-4.65a34.88,34.88,0,0,0-5.57,6.5c0,.93,2.78,2.79,4.64,4.65C388.13,80,390.92,78.18,392.77,75.4Z"/><path class="cls-1" d="M302.7,187.75c2.79-3.71,6.5-6.5,10.22-11.14,3.71,3.71,9.28,7.43,9.28,11.14s-5.57,7.43-8.35,11.14A63.55,63.55,0,0,0,302.7,187.75Z"/><path class="cls-1" d="M375.13,306.42a103.31,103.31,0,0,0,9.29-10.21c14.85,9.28,13,12.07.93,20.42A107.06,107.06,0,0,0,375.13,306.42Z"/><path class="cls-1" d="M332.42,681.74l-11.15-11.15a129.83,129.83,0,0,0,10.22-11.14c3.71,3.72,9.28,7.43,9.28,11.14S335.2,679,332.42,681.74Z"/></g></g></svg>