<svg xmlns="http://www.w3.org/2000/svg" xmlns:xlink="http://www.w3.org/1999/xlink" viewBox="0 0 978.3 648.25"><defs><style>.cls-1{fill:none;}.cls-2,.cls-4{opacity:0.5;}.cls-3{clip-path:url(#clip-path);}.cls-4{fill:#818386;isolation:isolate;}.cls-5{fill:#00338f;}.cls-6{fill:#13b3fc;}.cls-7{fill:#fff;}.cls-8{fill:#ff9210;}.cls-9{fill:#ffc910;}</style><clipPath id="clip-path"><rect id="SVGID" class="cls-1" x="419.73" y="579.69" width="342.72" height="68.54"/></clipPath></defs><title>IrisaPlus</title><g id="Layer_2" data-name="Layer 2"><g id="Layer_1-2" data-name="Layer 1"><g id="Group_2445" data-name="Group 2445"><g id="Group_2442" data-name="Group 2442" class="cls-2"><g id="Group_2441" data-name="Group 2441"><g class="cls-3"><g id="Group_2440" data-name="Group 2440"><path id="Path_3122" data-name="Path 3122" class="cls-4" d="M762.45,614c0,18.93-76.73,34.28-171.35,34.28S419.75,632.9,419.75,614s76.72-34.28,171.35-34.28S762.45,595,762.45,614"/></g></g></g></g><path id="Path_3123" data-name="Path 3123" class="cls-5" d="M569,609.41,348.52,388.9a31.19,31.19,0,0,1,0-44.1h0L569,124.27a31.18,31.18,0,0,1,44.09,0l0,0,220.5,220.59a31.18,31.18,0,0,1,0,44.09l0,0L613.12,609.49a31.18,31.18,0,0,1-44.09,0h0"/><path id="Path_3124" data-name="Path 3124" class="cls-6" d="M946,478.83H236.13a29.51,29.51,0,0,1-32.27-25.62V299.4a29.52,29.52,0,0,1,32.27-25.64H946A29.52,29.52,0,0,1,978.3,299.4V453.21A29.52,29.52,0,0,1,946,478.83"/><g id="Group_2443" data-name="Group 2443"><path id="Path_3125" data-name="Path 3125" class="cls-7" d="M788.9,338.29h-1.84v16.79a11.77,11.77,0,0,1-.48,3.54,5.22,5.22,0,0,1-1.44,2.35,8.77,8.77,0,0,1-6.24,1.84H753.78a17.23,17.23,0,0,1-4.23-.44,6.52,6.52,0,0,1-2.82-1.4,7.52,7.52,0,0,1-2.16-6V340.08H731.86v15.13a9.35,9.35,0,0,1-1.46,6,4.35,4.35,0,0,1-1.84,1.29,8.25,8.25,0,0,1-2.79.42,6.39,6.39,0,0,1-5-1.84,8.92,8.92,0,0,1-1.55-5.89v-15.1H706.29v15.07a16.61,16.61,0,0,1-.19,2.54,7.71,7.71,0,0,1-.55,2,5.49,5.49,0,0,1-.92,1.45A6.92,6.92,0,0,1,699.3,363a7.41,7.41,0,0,1-5.54-1.85,5.71,5.71,0,0,1-1.27-2.36,12.67,12.67,0,0,1-.43-3.52V340.14H679.15v15.07a7.26,7.26,0,0,1-2.23,5.89,11.66,11.66,0,0,1-7.38,1.84h-7.93a7.47,7.47,0,0,1-2.66-.4,4.29,4.29,0,0,1-1.85-1.26,5.7,5.7,0,0,1-1.1-2.41,15.86,15.86,0,0,1-.35-3.69V308H643.14v47.14a28.09,28.09,0,0,0,2.06,11.31,15,15,0,0,0,6.18,7.08A19.67,19.67,0,0,0,661.53,376h8a21.47,21.47,0,0,0,16.29-5.54v-.09l.1.09a13.66,13.66,0,0,0,5.53,4.15,20.5,20.5,0,0,0,7.82,1.39A17,17,0,0,0,713,370.69l.1-.11.09.11a13.68,13.68,0,0,0,5.35,3.95,18.82,18.82,0,0,0,7.27,1.33,21.34,21.34,0,0,0,7.71-1.31,12.41,12.41,0,0,0,5.53-4.08h.1a15.34,15.34,0,0,0,2.91,2.36,17.93,17.93,0,0,0,3.54,1.68,23.35,23.35,0,0,0,4.12,1,32.84,32.84,0,0,0,4.65.33h24.77a21,21,0,0,0,15.48-5.33,16.58,16.58,0,0,0,4-6.52,27.23,27.23,0,0,0,1.33-8.87V338.39H789.12Z"/><path id="Path_3126" data-name="Path 3126" class="cls-7" d="M775.51,385.58a2.83,2.83,0,0,0-4-.21,2.61,2.61,0,0,0-.42.46l-4.57,4.58a2.76,2.76,0,0,0-.57,3.87,3.56,3.56,0,0,0,.42.45l4.87,4.92a2.85,2.85,0,0,0,4,.48,2.37,2.37,0,0,0,.47-.48l4.58-4.57a2.94,2.94,0,0,0,.59-4.11,3.27,3.27,0,0,0-.44-.47Z"/><path id="Path_3127" data-name="Path 3127" class="cls-7" d="M793.48,385.58a2.83,2.83,0,0,0-4-.21,2.61,2.61,0,0,0-.42.46l-4.57,4.63a2.78,2.78,0,0,0-.55,3.9,2.49,2.49,0,0,0,.34.38l4.93,4.93a2.84,2.84,0,0,0,4,.47,2.61,2.61,0,0,0,.47-.47l4.58-4.58a2.89,2.89,0,0,0,.64-4,3.08,3.08,0,0,0-.49-.53Z"/><path id="Path_3128" data-name="Path 3128" class="cls-7" d="M871.53,385.58a2.83,2.83,0,0,0-4-.21,3,3,0,0,0-.41.46l-4.58,4.58a2.77,2.77,0,0,0-.56,3.87,3.47,3.47,0,0,0,.41.45l4.87,4.92a2.85,2.85,0,0,0,4,.48,2.73,2.73,0,0,0,.48-.48l4.57-4.57a3,3,0,0,0,.56-4.14,2.85,2.85,0,0,0-.41-.44Z"/><path id="Path_3129" data-name="Path 3129" class="cls-7" d="M884.89,338.27h-1.84v16.79a11.73,11.73,0,0,1-.48,3.54,5.22,5.22,0,0,1-1.44,2.35,8.77,8.77,0,0,1-6.24,1.84H850.32a10.63,10.63,0,0,1-6.48-1.73,7.64,7.64,0,0,1-2.3-6.46V341.39l-12.71.09v28.89q0,15.75-17.75,15.68h-5.37v13h5.53q27.79,0,30.15-24.92a19.69,19.69,0,0,0,8.89,1.71h24.63a21,21,0,0,0,15.48-5.33,16.73,16.73,0,0,0,4-6.51,27.33,27.33,0,0,0,1.33-8.88V338.27H884.89Z"/><path id="Path_3130" data-name="Path 3130" class="cls-7" d="M889.45,385.58a2.83,2.83,0,0,0-4-.21,2.61,2.61,0,0,0-.42.46l-4.57,4.63a2.78,2.78,0,0,0-.55,3.9,2.49,2.49,0,0,0,.34.38l4.93,4.93a2.84,2.84,0,0,0,4,.47,2.1,2.1,0,0,0,.47-.47l4.58-4.58a2.89,2.89,0,0,0,.64-4,3.08,3.08,0,0,0-.49-.53Z"/><path id="Path_3131" data-name="Path 3131" class="cls-7" d="M915.74,307.78H905.39v68h12.36v-68Z"/></g><g id="Group_2444" data-name="Group 2444"><path id="Path_3132" data-name="Path 3132" class="cls-7" d="M265.89,376.43H278V444.3H265.89Z"/><path id="Path_3133" data-name="Path 3133" class="cls-7" d="M291.34,376.43h23.82a23.79,23.79,0,0,1,8.95,1.6,20.61,20.61,0,0,1,6.88,4.46,19.63,19.63,0,0,1,4.43,6.78,23.22,23.22,0,0,1,1.55,8.57,18.42,18.42,0,0,1-1.09,6.41,19.36,19.36,0,0,1-3,5.4,22.92,22.92,0,0,1-9.85,7.16v.66l17.53,26.07v.76h-14L310,418.84h-5.68V444.3H291.55Zm23.42,30.29a9.22,9.22,0,0,0,6.82-2.64,9,9,0,0,0,2.66-6.7,10.6,10.6,0,0,0-.59-3.48,8.9,8.9,0,0,0-1.85-3,8.78,8.78,0,0,0-2.93-2.12,9.61,9.61,0,0,0-4-.81H303.37v18.78Z"/><path id="Path_3134" data-name="Path 3134" class="cls-7" d="M347.7,376.43h12.13V444.3H347.7Z"/><path id="Path_3135" data-name="Path 3135" class="cls-7" d="M393.05,444.3a27.21,27.21,0,0,1-8-1.18,23.07,23.07,0,0,1-7-3.55,24.25,24.25,0,0,1-5.53-5.77,27.82,27.82,0,0,1-3.69-7.95l11.55-4.54a17.58,17.58,0,0,0,4.44,8.13,11.2,11.2,0,0,0,8.36,3.23,13.51,13.51,0,0,0,3.69-.49,11.14,11.14,0,0,0,3.17-1.46,7.11,7.11,0,0,0,2.24-2.42,6.87,6.87,0,0,0,.81-3.36,8.11,8.11,0,0,0-.65-3.26A7.61,7.61,0,0,0,400.3,419a18.92,18.92,0,0,0-3.91-2.46,60.63,60.63,0,0,0-6-2.45l-4-1.46a29.38,29.38,0,0,1-5.31-2.45,23.38,23.38,0,0,1-4.88-3.69,18.53,18.53,0,0,1-3.59-5.13,15.08,15.08,0,0,1-1.4-6.68,17.07,17.07,0,0,1,1.49-7.14,17.51,17.51,0,0,1,4.28-5.81,20,20,0,0,1,6.64-3.91,24.9,24.9,0,0,1,8.6-1.4,24.55,24.55,0,0,1,8.5,1.33,20.85,20.85,0,0,1,6.09,3.36,18.63,18.63,0,0,1,4,4.5,21.62,21.62,0,0,1,2.27,4.63l-10.81,4.54a11.57,11.57,0,0,0-3.32-4.91,9.46,9.46,0,0,0-6.59-2.18,11.19,11.19,0,0,0-6.64,1.85,5.7,5.7,0,0,0-2.64,4.87,6.14,6.14,0,0,0,2.55,4.94,27.82,27.82,0,0,0,8.1,3.95l4.09,1.36a47.3,47.3,0,0,1,7.14,3.14,22.59,22.59,0,0,1,5.54,4.22,17.19,17.19,0,0,1,3.54,5.54,19.79,19.79,0,0,1,1.24,7.23,17.86,17.86,0,0,1-2.05,8.78,18.76,18.76,0,0,1-5.22,6.05,22.84,22.84,0,0,1-7.18,3.55A27.57,27.57,0,0,1,393.05,444.3Z"/><path id="Path_3136" data-name="Path 3136" class="cls-7" d="M443.51,376.43h14l24.41,67.87H468.52l-5.4-16.37H437.84l-5.4,16.37H419.08Zm15.59,40-5.87-17.12L450.85,391h-.74l-2.38,8.32-5.86,17.12Z"/></g></g><g id="Group_2446" data-name="Group 2446"><path id="Path_3137" data-name="Path 3137" class="cls-8" d="M269.26,226.25a37.08,37.08,0,0,0-18.67,4.25A187.05,187.05,0,0,0,228.69,244c-4.79,3.32-9,7.49-13.46,11.28h-.39c1.68-2.4,3.48-4.73,5-7.22,3.94-6.4,8-12.75,11.58-19.33,3.78-6.92,7.27-14,10.59-21.16,4.15-8.91,8.21-17.88,11.94-27,2.19-5.39,3.69-11.07,5.53-16.61,2.18-7.12,4.47-14.24,6.26-21.47a130.3,130.3,0,0,0,2.43-15.22c1.05-8.49,2.27-17,2.75-25.48a218.23,218.23,0,0,0,0-25.83,60.48,60.48,0,0,0-3.41-15.84A5.9,5.9,0,0,0,258,56.42,20.48,20.48,0,0,0,250.89,63c-4.89,7.14-9.23,14.76-14,21.9C231.85,92.43,226.79,100,221.09,107c-5.42,6.68-11.7,12.68-17.76,19.15,0,0,37.13,114.7-.89,136.93a43.93,43.93,0,0,1,6.4-2.29c-9.81,11.64-19.68,22.64-28.72,34.26a222,222,0,0,0-24.19,36.36A533.79,533.79,0,0,1,285.4,231.68,28.17,28.17,0,0,0,269.26,226.25Z"/><path id="Path_3138" data-name="Path 3138" class="cls-9" d="M203.2,126.13a9.81,9.81,0,0,1-1.15-1.58c-3.1-8.38-5.75-16.94-9.35-25.09-4.63-10.5-9.93-20.72-15.13-31a147.3,147.3,0,0,0-25.14-36.14A111.27,111.27,0,0,0,133.61,15.9,90.4,90.4,0,0,0,107.78,4.63,102.16,102.16,0,0,0,87.19,3.19V16.6h12c0,2.73-.13,5.24,0,7.72.14,2.12-.82,2.71-2.72,2.67H87.23V39.9H99v9.23H87.21v13.3H99v9.34H87.16V84.49H99V99H87.16v13.08H99v10.38H87.16v13.3H98.94v11.07H87.19v12.64h9.47c1.84,0,2.62.46,2.56,2.45-.11,4.93-.11,9.87,0,14.76,0,1.85-.7,2.57-2.55,2.51H87.23V191.5h12c-.85,4.94,2.14,7.78,5.09,10.64s5.54,5.54,8.67,8.52H99.2v14.76c0,1.85-.62,2.62-2.51,2.57H87.17v12.34h12c0,2.84-.15,5.35,0,7.86s-.69,3.08-3,2.95c-3-.17-6.09,0-9.12,0v12.91H98.93v11.07H87.19v13.31H99v11.73H87.16v12.91h17.32V304.2h12.19V312a100.79,100.79,0,0,0,11.66-4.47c7.66-4,15.26-8.24,22.57-12.91,8-5.06,15.4-11.07,23.46-15.92,9.08-5.54,18.56-10.44,27.93-15.5C240.33,240.9,203.2,126.13,203.2,126.13ZM104.5,21c0-.54,1.27-1.39,2-1.42,3.25-.15,6.51,0,10,0V31h-12C104.4,27.73,104.31,24.39,104.5,21Zm12,27.1V58.74H104.57V48.08Zm-12,26.19a2.66,2.66,0,0,1,1.85-1.84c3.33-.19,6.71,0,10.2,0v11.4H104.44c0-3.3-.16-6.4,0-9.46Zm12,32.84v11.4h-12c0-3.24-.12-6.32,0-9.39a2.66,2.66,0,0,1,1.84-1.84c3.36-.17,6.72-.08,10.22-.08Zm-12.06,33.76h12v12c-3.27,0-6.61.13-9.91-.09a3,3,0,0,1-2-2.09c-.22-3.06-.09-6.23-.09-9.76Zm0,106.17V236.16h11.92V247Zm12,33.43H104.5V269.59h11.84Zm.13-97.33H105.79c-.5,0-1-.83-1.44-1.35-.15-.16,0-.55,0-.85.16-3,.32-6.05.5-9.09h11.66Zm5.37-149h11.31V44a2.42,2.42,0,0,1-1.85,1.55c-3.06.17-6.14,0-9.46,0Zm11.07,21.51V67.54H122V55.66ZM121.84,92.45h10c.46,0,1.23,1.1,1.25,1.73.13,3.17,0,6.35,0,9.74H121.76ZM133,125.28v11.18H122V125.28Zm0,173.81H122v-11H133Zm.13-34.28H121.78V253.37h10a2,2,0,0,1,1.31,1.46c.19,3.41.13,6.68.13,10.09Zm0-43.83v9.74c0,1.4-.39,2.32-2.13,2.27-3-.11-5.94,0-9.22,0V221Zm-11.26-19.39v-11.9H133v11.9Zm11.33-30.87H121.47v-11.4c3.8,0,6.95-.09,10.09,0a2.44,2.44,0,0,1,1.62,1.85c.23,3.23.13,6.34.13,9.68Zm5.33-95.93h11.48v12c-3.4,0-6.46.11-9.52,0a2.61,2.61,0,0,1-1.85-1.72c-.15-3.22,0-6.65,0-10.2Zm0,35.51a2.61,2.61,0,0,1,1.85-1.71c3.06-.19,6.16,0,9.53,0v11.49H138.44c.19-3.36.09-6.53.28-9.68Zm11.31,171.57c-3.19,0-6.25.12-9.22,0a2.7,2.7,0,0,1-2-1.71c-.2-3.34-.09-6.7-.09-10.24H150Zm0-33.2H138.72V236.82h11.16Zm.09-58H140c-.53,0-1.4-1.2-1.44-1.84-.14-3.07,0-6.15,0-9.45h11.52Zm0-37.58H138.46V143.05a2.38,2.38,0,0,1,1.64-1.64c3.23-.17,6.46,0,9.78,0Z"/><path id="Path_3139" data-name="Path 3139" class="cls-9" d="M64.24,233.74c-6.84,0-6.84,0-6.84,6.87,0,6.45,0,6.45,6.55,6.45s6.81,0,6.79-6.82C70.7,233.08,71.53,233.74,64.24,233.74Z"/><path id="Path_3140" data-name="Path 3140" class="cls-9" d="M64.26,163.53c-6.86,0-6.86,0-6.86,6.92,0,6.4,0,6.4,6.4,6.4,6.93,0,6.93,0,6.93-6.79C70.72,162.72,71.4,163.55,64.26,163.53Z"/><path id="Path_3141" data-name="Path 3141" class="cls-9" d="M68.82,269a64.62,64.62,0,0,0-9.23,0,2.92,2.92,0,0,0-2.08,1.84c-.22,3.54-.09,7.1-.09,10.81H70.74c0-3.69.09-7.25,0-10.79A2.74,2.74,0,0,0,68.82,269Z"/><path id="Path_3142" data-name="Path 3142" class="cls-9" d="M49.11,280.16H38.25c0,4-.09,7.77,0,11.49a2.64,2.64,0,0,0,1.84,1.74c2.79.2,5.54,0,8.38.11,1.84,0,2.56-.83,2.6-2.57,0-2.78.11-5.53.24-8.35C51.51,280.94,50.9,280.12,49.11,280.16Z"/><path id="Path_3143" data-name="Path 3143" class="cls-9" d="M59.54,12.75a64.48,64.48,0,0,0,9.22,0,2.59,2.59,0,0,0,1.85-1.68c.16-3.69,0-7.27,0-11.07H57.29c0,3.69-.15,7.05.09,10.4A3.21,3.21,0,0,0,59.54,12.75Z"/><path id="Path_3144" data-name="Path 3144" class="cls-9" d="M11.61,70.58c-3.36-.16-6.73-.16-10.09,0C1,70.58.15,71.69.11,72.32,0,75.39,0,78.47.11,81.54a2.61,2.61,0,0,0,1.57,1.85c3.69.16,7.49,0,11.53,0V72.45A2.78,2.78,0,0,0,11.61,70.58Z"/><path id="Path_3145" data-name="Path 3145" class="cls-9" d="M64.63,79.35c6.11,0,6.11,0,6.11-6.11,0-6.66,0-6.66-6.7-6.64h-.87c-5.75,0-5.75,0-5.75,5.77C57.4,79.35,57.4,79.35,64.63,79.35Z"/><path id="Path_3146" data-name="Path 3146" class="cls-9" d="M40.74,140.3c2.6-.11,5.2-.09,7.78,0,1.85,0,2.6-.74,2.57-2.54v-8.38c0-1.66-.5-2.49-2.31-2.45H38.23c0,3.83.09,7.38,0,10.9C38.14,139.8,38.91,140.38,40.74,140.3Z"/><path id="Path_3147" data-name="Path 3147" class="cls-9" d="M20.81,34.65c-1.68,0-2.23.77-2.23,2.23v8.94c0,.74.87,2,1.39,2,3.69.19,7.38.1,11.06.1V34.66C27.53,34.68,24.17,34.74,20.81,34.65Z"/><path id="Path_3148" data-name="Path 3148" class="cls-9" d="M21,118.26c3.29-.1,6.55,0,10.13,0V104.9H20.81c-1.71,0-2.19.92-2.21,2.29v9C18.62,117.65,19.36,118.31,21,118.26Z"/><path id="Path_3149" data-name="Path 3149" class="cls-9" d="M82,135a2.93,2.93,0,0,0,1.84-2.1,70.34,70.34,0,0,0,0-8.95c0-.74-.87-2-1.36-2.05-3.69-.18-7.38-.09-11.07-.09v13.3C75.13,135.06,78.58,135.17,82,135Z"/><path id="Path_3150" data-name="Path 3150" class="cls-9" d="M70.62,144.08a2.68,2.68,0,0,0-1.84-1.84,80.24,80.24,0,0,0-9.56,0,2.49,2.49,0,0,0-1.84,1.7c-.17,3.54,0,7.08,0,10.77H70.7C70.72,151,70.83,147.53,70.62,144.08Z"/><path id="Path_3151" data-name="Path 3151" class="cls-9" d="M20.94,237.19c-1.84,0-2.4.83-2.43,2.4v8.69c0,1.57.51,2.36,2.17,2.27,3.51-.17,7-.3,10.54-.42V237.21C27.44,237.23,24.23,237.3,20.94,237.19Z"/><path id="Path_3152" data-name="Path 3152" class="cls-9" d="M20.74,142.72a2.9,2.9,0,0,0-2,1.84,67.13,67.13,0,0,0,0,9c0,.74.91,2,1.44,2.05,3.69.18,7.38.09,11.07.09V142.59C27.47,142.59,24.1,142.59,20.74,142.72Z"/><path id="Path_3153" data-name="Path 3153" class="cls-9" d="M12.09,15.74c.4,0,1.1-.83,1.12-1.31.09-3.69,0-7.27,0-10.94H.13V15.77C4.12,15.79,8,15.85,12.09,15.74Z"/><path id="Path_3154" data-name="Path 3154" class="cls-9" d="M49.22,31.84a2.48,2.48,0,0,0,1.85-1.68c.16-3.69,0-7.27,0-11.07H38.34V31.88C42.12,32,45.68,32.05,49.22,31.84Z"/><path id="Path_3155" data-name="Path 3155" class="cls-9" d="M38.4,233.89H49.61c.52,0,1.44-.74,1.46-1.14.11-3.88,0-7.75,0-11.57H38.34Z"/><path id="Path_3156" data-name="Path 3156" class="cls-9" d="M57.64,118.16H70.55v-12H57.64Z"/><path id="Path_3157" data-name="Path 3157" class="cls-9" d="M70.59,26.16H57.67V38H70.59Z"/><path id="Path_3158" data-name="Path 3158" class="cls-9" d="M51.07,69.33c0-3.69.09-7.29,0-10.79a2.71,2.71,0,0,0-1.85-1.85,74.4,74.4,0,0,0-9,0,2.48,2.48,0,0,0-1.85,1.61c-.16,3.69,0,7.27,0,11.07Z"/><path id="Path_3159" data-name="Path 3159" class="cls-9" d="M51.09,98.92c0-3.69.09-7.25-.09-10.77,0-.63-1.26-1.66-2-1.72a62.72,62.72,0,0,0-8.67,0,2.62,2.62,0,0,0-2,1.7c-.18,3.54-.09,7.08-.09,10.77Z"/><path id="Path_3160" data-name="Path 3160" class="cls-9" d="M81.84,57.3c1.46,0,2.16-.46,2.16-1.94,0-3,.11-6-.09-8.94a2.69,2.69,0,0,0-1.85-1.85,65.71,65.71,0,0,0-8.65,0,2.69,2.69,0,0,0-2,1.68c-.19,3.52,0,7.09,0,11C75.13,57.28,78.48,57.23,81.84,57.3Z"/><path id="Path_3161" data-name="Path 3161" class="cls-9" d="M82.34,89.81c-3.69-.15-7.23,0-10.9,0v12.8c3.69,0,7,.11,10.38,0a2.89,2.89,0,0,0,2.07-1.84,74.8,74.8,0,0,0,0-9.23A2.23,2.23,0,0,0,82.34,89.81Z"/><path id="Path_3162" data-name="Path 3162" class="cls-9" d="M40,268.17a94.47,94.47,0,0,0,9.52,0,2.18,2.18,0,0,0,1.64-1.4c.15-3.53,0-7.07,0-10.74h-13c0,3.69-.09,7.05,0,10.41A2.57,2.57,0,0,0,40,268.17Z"/><path id="Path_3163" data-name="Path 3163" class="cls-9" d="M82.17,212.36c-3.52-.18-7.06,0-10.71,0v12.36h10.9A2.39,2.39,0,0,0,84,223a65.71,65.71,0,0,0,0-8.65A2.62,2.62,0,0,0,82.17,212.36Z"/><path id="Path_3164" data-name="Path 3164" class="cls-9" d="M71.49,262.52H84V250.81H71.49Z"/><path id="Path_3165" data-name="Path 3165" class="cls-9" d="M71.47,302.69H83.83V290.77H71.47Z"/></g></g></g></svg>